<svg width="598" height="536" viewBox="0 0 598 536" fill="none" xmlns="http://www.w3.org/2000/svg">
<g filter="url(#filter0_d_232_2934)">
<path d="M295 520C452.401 520 580 445.075 580 352.651C580 260.226 452.401 185.301 295 185.301C137.599 185.301 10 260.226 10 352.651C10 445.075 137.599 520 295 520Z" fill="#F5F5F5"/>
</g>
<path d="M409.952 479.461C465.154 479.461 509.904 453.626 509.904 421.758C509.904 389.89 465.154 364.056 409.952 364.056C354.75 364.056 310 389.89 310 421.758C310 453.626 354.75 479.461 409.952 479.461Z" fill="#E0E0E0"/>
<path d="M159.243 286.99L154.58 284.296C153.803 283.791 153.156 283.11 152.692 282.309C152.228 281.507 151.96 280.607 151.91 279.682V85.8804C151.961 84.957 152.228 84.0585 152.689 83.2571C153.151 82.4557 153.794 81.7739 154.568 81.2667L284.183 6.43807C285.008 6.01974 285.921 5.80176 286.847 5.80176C287.772 5.80176 288.685 6.01974 289.51 6.43807L294.173 9.13249C294.95 9.63693 295.597 10.3177 296.061 11.1195C296.525 11.9213 296.793 12.8213 296.843 13.7462V207.548C296.792 208.471 296.525 209.37 296.064 210.171C295.602 210.972 294.959 211.654 294.185 212.161L164.57 287.002C163.745 287.422 162.831 287.639 161.905 287.637C160.979 287.635 160.067 287.413 159.243 286.99Z" fill="#455A64"/>
<path d="M296.843 13.3156C296.659 11.9376 295.539 11.4332 294.198 12.2083L164.571 87.0492C163.787 87.5411 163.139 88.2223 162.688 89.0301L152.686 83.2598C153.133 82.4459 153.781 81.7598 154.568 81.2667L284.183 6.43807C285.009 6.01974 285.921 5.80176 286.847 5.80176C287.772 5.80176 288.685 6.01974 289.51 6.43807L294.173 9.1325C294.894 9.59615 295.505 10.21 295.966 10.932C296.427 11.654 296.726 12.4671 296.843 13.3156Z" fill="#455A64"/>
<path d="M164.115 287.211C163.328 287.53 162.481 287.677 161.632 287.641C160.783 287.605 159.952 287.387 159.194 287.002L154.519 284.296C153.746 283.788 153.102 283.107 152.641 282.305C152.179 281.504 151.912 280.605 151.861 279.682V85.8804C151.893 84.9552 152.16 84.0533 152.636 83.2598L162.639 89.03C162.153 89.8246 161.882 90.7319 161.852 91.6629V285.464C161.901 286.99 162.86 287.691 164.115 287.211Z" fill="#263238"/>
<path d="M161.9 91.6874V285.464C161.9 287.162 163.131 287.851 164.57 287.002L294.185 212.161C294.959 211.654 295.602 210.972 296.064 210.171C296.525 209.37 296.792 208.471 296.843 207.548V13.7461C296.843 12.0482 295.613 11.3593 294.185 12.2082L164.57 87.0491C163.79 87.5559 163.141 88.2407 162.677 89.047C162.213 89.8533 161.947 90.7582 161.9 91.6874Z" fill="#37474F"/>
<path d="M229.372 69.7875C244.48 61.0644 256.722 68.1388 256.722 85.5849C256.722 103.031 244.48 124.23 229.372 132.953C214.263 141.676 202.021 134.601 202.021 117.167C202.021 99.7337 214.263 78.5105 229.372 69.7875Z" fill="#243271"/>
<path d="M229.175 83.5179C234.096 80.6881 238.046 82.9765 238.046 88.6361C237.878 91.7125 236.987 94.7061 235.446 97.3739C233.905 100.042 231.756 102.309 229.175 103.991C224.254 106.82 220.292 104.532 220.292 98.8724C220.461 95.7948 221.353 92.8005 222.897 90.1326C224.44 87.4648 226.591 85.1985 229.175 83.5179Z" fill="white"/>
<path d="M246.671 113.686C246.671 104.397 240.138 100.62 232.092 105.27L227.06 108.174C219.014 112.824 212.48 124.168 212.48 133.432V135.979C214 136.465 215.585 136.71 217.18 136.705C221.497 136.558 225.7 135.286 229.373 133.014C236.367 128.706 242.284 122.857 246.671 115.913V113.686Z" fill="white"/>
<path d="M212.049 219.31L246.695 199.304C248.171 198.455 249.365 199.144 249.365 200.842V212.001C249.314 212.926 249.046 213.826 248.582 214.628C248.118 215.43 247.472 216.111 246.695 216.615L212.049 236.62C210.572 237.469 209.379 236.78 209.379 235.082V223.923C209.429 222.998 209.697 222.098 210.161 221.297C210.625 220.495 211.272 219.814 212.049 219.31Z" fill="#243271"/>
<path d="M195.083 194.383L263.624 154.791C265.384 153.77 266.823 154.594 266.823 156.637V160.783C266.763 161.892 266.442 162.972 265.886 163.934C265.331 164.896 264.556 165.713 263.624 166.319L195.046 205.911C193.287 206.933 191.859 206.108 191.859 204.066V199.957C191.915 198.838 192.237 197.75 192.798 196.78C193.358 195.811 194.142 194.989 195.083 194.383Z" fill="#FAFAFA"/>
<path d="M203.106 165.729C204.041 165.187 204.766 165.101 205.283 165.483C205.8 165.864 206.058 166.713 206.058 168.017C206.084 169.208 205.818 170.386 205.283 171.45C204.8 172.411 204.042 173.208 203.106 173.738L201.26 174.809V178.783C201.256 178.919 201.223 179.054 201.162 179.176C201.118 179.288 201.041 179.382 200.94 179.447L200.005 179.988C199.973 180.012 199.934 180.025 199.894 180.025C199.854 180.025 199.816 180.012 199.784 179.988C199.717 179.905 199.686 179.799 199.698 179.693V168.189C199.696 168.053 199.726 167.919 199.784 167.796C199.83 167.686 199.907 167.593 200.005 167.525L203.106 165.729ZM201.26 172.582L203.044 171.548C203.475 171.305 203.839 170.958 204.102 170.539C204.382 170.045 204.518 169.483 204.496 168.915C204.496 168.251 204.36 167.87 204.102 167.759C203.92 167.714 203.729 167.712 203.546 167.753C203.363 167.793 203.191 167.875 203.044 167.993L201.26 169.026V172.582Z" fill="#FAFAFA"/>
<path d="M211.212 161.041C211.335 160.967 211.433 160.967 211.495 161.041C211.574 161.152 211.628 161.277 211.655 161.41L214.497 171.031C214.497 171.031 214.497 171.105 214.497 171.142C214.495 171.279 214.461 171.414 214.398 171.536C214.355 171.647 214.278 171.742 214.177 171.807L213.34 172.286C213.193 172.373 213.082 172.385 213.021 172.286C212.961 172.225 212.918 172.148 212.897 172.065L212.393 170.379L208.702 172.496L208.21 174.759C208.175 174.882 208.13 175.001 208.075 175.116C208.014 175.266 207.9 175.389 207.755 175.461L206.918 175.94C206.887 175.967 206.848 175.981 206.807 175.981C206.767 175.981 206.728 175.967 206.697 175.94C206.632 175.861 206.601 175.759 206.611 175.658C206.604 175.613 206.604 175.567 206.611 175.522L209.44 162.628C209.474 162.439 209.528 162.253 209.6 162.075C209.66 161.945 209.759 161.838 209.883 161.767L211.212 161.041ZM211.852 168.497L210.621 164.154L209.391 169.961L211.852 168.497Z" fill="#FAFAFA"/>
<path d="M218.804 156.477C219.216 156.217 219.685 156.06 220.17 156.021C220.513 155.99 220.857 156.068 221.154 156.243C221.424 156.418 221.634 156.671 221.757 156.969C221.891 157.271 221.966 157.597 221.978 157.928C221.987 158.065 221.957 158.201 221.892 158.322C221.849 158.433 221.771 158.528 221.671 158.593L220.859 159.06C220.723 159.134 220.625 159.146 220.564 159.06C220.487 159.01 220.424 158.943 220.379 158.863C220.33 158.753 220.258 158.653 220.17 158.571C220.081 158.488 219.976 158.424 219.862 158.384C219.488 158.33 219.107 158.427 218.804 158.654C218.605 158.783 218.415 158.927 218.238 159.085C218.055 159.253 217.894 159.443 217.758 159.651C217.628 159.851 217.52 160.066 217.438 160.291C217.366 160.505 217.329 160.729 217.328 160.955C217.313 161.162 217.351 161.369 217.438 161.558C217.476 161.624 217.53 161.68 217.594 161.72C217.658 161.761 217.732 161.786 217.808 161.792C218.036 161.831 218.269 161.831 218.497 161.792L219.567 161.558C219.966 161.44 220.382 161.39 220.797 161.41C221.094 161.409 221.383 161.504 221.622 161.681C221.847 161.87 222.01 162.123 222.089 162.407C222.21 162.805 222.264 163.221 222.249 163.637C222.248 164.187 222.17 164.733 222.015 165.261C221.865 165.804 221.646 166.325 221.363 166.811C221.065 167.31 220.71 167.773 220.305 168.189C219.891 168.618 219.419 168.987 218.903 169.284C218.524 169.515 218.107 169.677 217.672 169.764C217.318 169.832 216.952 169.802 216.614 169.678C216.307 169.535 216.052 169.298 215.888 169.001C215.687 168.622 215.578 168.2 215.568 167.771C215.567 167.631 215.597 167.492 215.655 167.365C215.709 167.26 215.79 167.171 215.888 167.107L216.7 166.639C216.823 166.565 216.922 166.541 216.996 166.577C217.069 166.614 217.119 166.676 217.168 166.787C217.219 166.913 217.285 167.033 217.365 167.143C217.441 167.251 217.548 167.332 217.672 167.377C217.834 167.415 218.002 167.415 218.164 167.377C218.426 167.316 218.675 167.212 218.903 167.07C219.141 166.934 219.368 166.777 219.579 166.602C219.993 166.275 220.322 165.853 220.539 165.372C220.637 165.125 220.688 164.862 220.687 164.597C220.698 164.5 220.69 164.403 220.662 164.31C220.635 164.216 220.589 164.13 220.527 164.055C220.46 163.997 220.382 163.953 220.297 163.928C220.212 163.902 220.122 163.895 220.034 163.908C219.755 163.919 219.478 163.965 219.21 164.043C218.89 164.117 218.521 164.203 218.091 164.277C217.761 164.359 217.42 164.384 217.082 164.351C216.815 164.333 216.563 164.225 216.368 164.043C216.155 163.835 216.006 163.57 215.937 163.28C215.838 162.853 215.793 162.415 215.802 161.976C215.801 161.434 215.88 160.895 216.036 160.377C216.183 159.843 216.398 159.33 216.676 158.851C216.942 158.375 217.264 157.933 217.635 157.535C217.973 157.128 218.366 156.772 218.804 156.477Z" fill="#FAFAFA"/>
<path d="M226.887 151.826C227.296 151.558 227.766 151.397 228.253 151.359C228.596 151.329 228.94 151.407 229.237 151.58C229.5 151.76 229.705 152.012 229.828 152.306C229.962 152.609 230.037 152.934 230.049 153.266C230.064 153.403 230.033 153.541 229.963 153.659C229.92 153.771 229.842 153.865 229.742 153.93L228.929 154.397C228.806 154.471 228.708 154.496 228.634 154.397C228.556 154.348 228.495 154.275 228.462 154.188C228.35 153.972 228.161 153.806 227.933 153.721C227.749 153.694 227.562 153.704 227.383 153.75C227.203 153.797 227.035 153.879 226.887 153.991C226.682 154.117 226.488 154.261 226.309 154.422C226.13 154.59 225.973 154.781 225.841 154.988C225.706 155.186 225.598 155.401 225.521 155.628C225.445 155.841 225.403 156.066 225.398 156.292C225.384 156.499 225.422 156.707 225.509 156.895C225.547 156.961 225.6 157.017 225.665 157.058C225.729 157.098 225.802 157.123 225.878 157.129C226.106 157.169 226.339 157.169 226.567 157.129L227.638 156.895C228.038 156.784 228.453 156.734 228.868 156.747C229.165 156.745 229.455 156.84 229.692 157.018C229.917 157.21 230.084 157.462 230.172 157.744C230.281 158.145 230.33 158.559 230.32 158.974C230.319 159.524 230.24 160.071 230.086 160.598C229.936 161.141 229.717 161.662 229.434 162.149C229.138 162.652 228.782 163.119 228.376 163.539C227.96 163.957 227.493 164.321 226.986 164.622C226.606 164.851 226.19 165.014 225.755 165.101C225.405 165.168 225.044 165.139 224.709 165.015C224.396 164.877 224.136 164.639 223.971 164.339C223.769 163.96 223.663 163.537 223.664 163.108C223.649 162.971 223.679 162.833 223.75 162.715C223.793 162.603 223.871 162.508 223.971 162.444L224.783 161.976C224.906 161.902 225.017 161.878 225.079 161.915C225.121 161.934 225.159 161.963 225.189 161.999C225.219 162.036 225.24 162.078 225.251 162.124C225.306 162.248 225.372 162.367 225.448 162.481C225.529 162.589 225.64 162.67 225.768 162.715C225.929 162.752 226.098 162.752 226.26 162.715C226.521 162.653 226.77 162.549 226.998 162.407C227.231 162.268 227.453 162.111 227.662 161.939C227.878 161.771 228.069 161.572 228.228 161.349C228.387 161.136 228.52 160.905 228.622 160.66C228.72 160.413 228.771 160.15 228.77 159.885C228.781 159.788 228.773 159.691 228.745 159.598C228.718 159.505 228.672 159.418 228.61 159.343C228.543 159.285 228.465 159.241 228.38 159.216C228.295 159.19 228.205 159.183 228.118 159.196C227.843 159.213 227.571 159.258 227.305 159.331C226.986 159.405 226.604 159.491 226.186 159.565C225.852 159.647 225.507 159.672 225.165 159.639C224.898 159.625 224.645 159.516 224.451 159.331C224.242 159.122 224.097 158.857 224.033 158.568C223.924 158.147 223.874 157.712 223.885 157.276C223.89 156.731 223.968 156.189 224.119 155.665C224.271 155.133 224.486 154.621 224.759 154.139C225.025 153.66 225.352 153.218 225.731 152.823C226.062 152.432 226.452 152.096 226.887 151.826Z" fill="#FAFAFA"/>
<path d="M235.856 153.364L234.859 159.257C234.83 159.434 234.78 159.608 234.712 159.774C234.664 159.906 234.573 160.019 234.453 160.094L233.518 160.635C233.395 160.709 233.309 160.709 233.247 160.635C233.165 160.534 233.117 160.409 233.112 160.278L231.636 149.882C231.636 149.882 231.636 149.783 231.636 149.746C231.639 149.61 231.673 149.475 231.734 149.353C231.781 149.243 231.858 149.15 231.956 149.082L232.805 148.59C232.876 148.561 232.955 148.561 233.026 148.59C233.1 148.59 233.149 148.688 233.174 148.885L234.146 155.886L234.995 150.632C235.017 150.501 235.054 150.373 235.105 150.251C235.154 150.095 235.259 149.964 235.401 149.882L236.348 149.328C236.483 149.254 236.582 149.267 236.643 149.328C236.696 149.406 236.734 149.494 236.754 149.587L237.615 153.856L238.587 145.736C238.599 145.576 238.645 145.421 238.722 145.28C238.78 145.188 238.855 145.109 238.944 145.047L239.793 144.554C239.825 144.531 239.864 144.518 239.904 144.518C239.943 144.518 239.982 144.531 240.014 144.554C240.049 144.595 240.076 144.642 240.093 144.692C240.11 144.743 240.117 144.796 240.113 144.85C240.118 144.899 240.118 144.948 240.113 144.997L238.636 157.092C238.612 157.269 238.566 157.442 238.501 157.608C238.445 157.74 238.35 157.851 238.23 157.928L237.283 158.47C237.172 158.531 237.086 158.531 237.025 158.47C236.962 158.356 236.913 158.237 236.877 158.113L235.856 153.364Z" fill="#FAFAFA"/>
<path d="M241.614 148.147C241.641 147.465 241.723 146.786 241.86 146.117C242.001 145.463 242.215 144.828 242.5 144.222C242.771 143.634 243.118 143.084 243.533 142.586C243.954 142.092 244.458 141.676 245.022 141.356C245.455 141.062 245.963 140.895 246.486 140.876C246.877 140.88 247.251 141.034 247.532 141.307C247.83 141.642 248.045 142.042 248.159 142.475C248.318 143.04 248.405 143.623 248.418 144.21C248.418 144.432 248.418 144.678 248.418 144.948C248.418 145.219 248.418 145.502 248.418 145.797C248.418 146.093 248.418 146.376 248.418 146.646C248.418 146.917 248.418 147.175 248.418 147.409C248.391 148.087 248.309 148.762 248.172 149.427C248.029 150.079 247.819 150.714 247.544 151.321C247.264 151.908 246.913 152.458 246.498 152.958C246.078 153.447 245.579 153.863 245.022 154.188C244.578 154.48 244.064 154.646 243.533 154.668C243.342 154.672 243.151 154.637 242.974 154.565C242.796 154.493 242.635 154.386 242.5 154.25C242.179 153.905 241.958 153.48 241.86 153.019C241.713 152.452 241.631 151.87 241.614 151.285C241.614 151.063 241.614 150.817 241.614 150.546C241.614 150.276 241.614 149.993 241.614 149.697C241.614 149.402 241.614 149.132 241.614 148.849C241.614 148.566 241.602 148.369 241.614 148.147ZM246.855 145.207C246.882 144.906 246.849 144.602 246.756 144.315C246.663 144.027 246.512 143.761 246.314 143.533C245.994 143.251 245.551 143.263 245.022 143.533C244.448 143.871 243.992 144.378 243.718 144.985C243.369 145.703 243.184 146.488 243.176 147.286C243.176 147.741 243.176 148.246 243.176 148.799C243.176 149.353 243.176 149.845 243.176 150.288C243.149 150.589 243.183 150.892 243.276 151.18C243.369 151.468 243.519 151.733 243.718 151.961C244.038 152.232 244.481 152.207 245.022 151.9C245.587 151.56 246.037 151.058 246.314 150.46C246.663 149.747 246.848 148.965 246.855 148.172C246.855 147.704 246.855 147.2 246.855 146.646C246.855 146.093 246.867 145.65 246.855 145.207Z" fill="#FAFAFA"/>
<path d="M253.782 136.447C254.754 135.893 255.48 135.807 255.984 136.213C256.283 136.542 256.506 136.934 256.635 137.359C256.765 137.785 256.799 138.233 256.735 138.674C256.745 139.509 256.616 140.341 256.354 141.134C256.104 141.873 255.715 142.558 255.209 143.152L256.809 146.634C256.814 146.691 256.814 146.749 256.809 146.806C256.809 146.917 256.784 147.027 256.735 147.126C256.701 147.215 256.641 147.292 256.563 147.347L255.578 147.913C255.418 147.999 255.308 148.012 255.234 147.913C255.169 147.849 255.115 147.774 255.074 147.692L253.561 144.407L252.023 145.293V149.451C252.024 149.587 251.994 149.722 251.937 149.845C251.886 149.952 251.81 150.045 251.715 150.116L250.78 150.657C250.749 150.683 250.71 150.697 250.669 150.697C250.629 150.697 250.59 150.683 250.559 150.657C250.523 150.619 250.496 150.575 250.479 150.526C250.463 150.477 250.456 150.425 250.46 150.374V138.87C250.464 138.734 250.497 138.599 250.559 138.477C250.602 138.365 250.68 138.271 250.78 138.206L253.782 136.447ZM252.047 143.066L253.782 142.131C254.206 141.894 254.569 141.561 254.84 141.159C255.125 140.685 255.262 140.136 255.234 139.584C255.234 138.92 255.099 138.551 254.84 138.477C254.466 138.426 254.086 138.523 253.782 138.747L252.109 139.707L252.047 143.066Z" fill="#FAFAFA"/>
<path d="M262.026 131.71C262.472 131.419 262.983 131.241 263.514 131.193C263.899 131.179 264.275 131.316 264.56 131.575C264.886 131.917 265.111 132.343 265.212 132.805C265.378 133.415 265.468 134.043 265.483 134.675C265.483 135.536 265.483 136.422 265.483 137.32C265.458 138.053 265.367 138.782 265.212 139.498C265.072 140.164 264.857 140.812 264.572 141.43C264.298 141.997 263.95 142.527 263.539 143.005C263.128 143.494 262.637 143.91 262.087 144.235L259.171 145.822C259.14 145.848 259.101 145.862 259.061 145.862C259.02 145.862 258.981 145.848 258.95 145.822C258.914 145.785 258.886 145.74 258.869 145.691C258.852 145.642 258.846 145.591 258.851 145.539V134.035C258.855 133.899 258.889 133.764 258.95 133.642C258.993 133.53 259.071 133.436 259.171 133.371L262.026 131.71ZM263.92 135.536C263.915 135.203 263.865 134.872 263.773 134.552C263.715 134.31 263.592 134.088 263.416 133.912C263.339 133.835 263.246 133.775 263.145 133.734C263.043 133.694 262.935 133.675 262.825 133.679C262.517 133.699 262.22 133.801 261.964 133.974L260.414 134.86V142.882L262.026 141.959C262.337 141.777 262.616 141.544 262.85 141.27C263.079 141 263.273 140.702 263.428 140.384C263.581 140.045 263.697 139.69 263.773 139.326C263.858 138.946 263.908 138.559 263.92 138.169C263.957 137.271 263.957 136.398 263.92 135.536Z" fill="#FAFAFA"/>
<path d="M425.854 135.059C427.49 137.691 428.856 140.201 430.259 142.822C431.661 145.443 432.928 148.075 434.171 150.77C436.706 156.226 438.805 161.874 440.446 167.662C440.667 168.388 440.827 169.163 441.012 169.914L441.282 171.058L441.418 171.624L441.578 172.559C441.855 174.68 441.726 176.835 441.196 178.908C440.347 182.126 439.055 185.21 437.358 188.073C434.321 193.276 430.652 198.083 426.432 202.382L421.253 198.47C423.853 193.69 426.166 188.76 428.179 183.706C429.076 181.479 429.708 179.154 430.062 176.779C430.175 176.054 430.141 175.313 429.963 174.601L429.471 173.1C429.274 172.485 429.09 171.87 428.856 171.243C426.985 166.167 424.82 161.204 422.372 156.38C419.911 151.459 417.266 146.538 414.621 141.838L425.854 135.059Z" fill="#FF8B7B"/>
<path d="M422.569 196.76L416.909 199.749L423.405 207.353C423.405 207.353 427.465 204.609 427.65 200.426L422.569 196.76Z" fill="#FF8B7B"/>
<path d="M409.318 204.437L416.27 209.961L423.406 207.353L416.91 199.75L409.318 204.437Z" fill="#FF8B7B"/>
<path d="M385.549 94.8021C385.413 95.4911 384.934 95.9709 384.491 95.8848C384.048 95.7987 383.789 95.1589 383.925 94.4822C384.06 93.8055 384.54 93.2519 384.995 93.3995C385.45 93.5472 385.684 94.1131 385.549 94.8021Z" fill="#263238"/>
<path d="M384.995 95.9834C383.756 97.9105 382.257 99.6576 380.541 101.175C380.946 101.595 381.438 101.923 381.981 102.135C382.525 102.348 383.108 102.44 383.691 102.406L384.995 95.9834Z" fill="#FF5652"/>
<path d="M382.78 120.123V112.052L393.46 113.282C393.46 113.282 393.287 120.221 387.308 122.263L382.78 120.123Z" fill="#FF8B7B"/>
<path d="M385.856 106.244L393.373 108.41L393.508 113.343L382.829 112.051L385.856 106.244Z" fill="#FF8B7B"/>
<path opacity="0.2" d="M393.373 108.41L385.856 106.244L384.392 109.049C384.472 111.26 385.162 113.405 386.387 115.246C387.612 117.088 389.323 118.554 391.331 119.482C392.622 117.678 393.377 115.546 393.508 113.331L393.373 108.41Z" fill="#243271"/>
<path d="M388.821 91.5174C388.9 91.5152 388.977 91.4909 389.042 91.4471C389.108 91.4032 389.16 91.3418 389.192 91.2697C389.224 91.1977 389.235 91.118 389.224 91.0399C389.213 90.9618 389.18 90.8885 389.129 90.8284C388.697 90.3403 388.154 89.9628 387.546 89.7274C386.938 89.492 386.283 89.4054 385.635 89.475C385.529 89.4931 385.434 89.5524 385.372 89.6401C385.31 89.7277 385.285 89.8365 385.302 89.9425C385.321 90.0493 385.38 90.1449 385.467 90.2091C385.554 90.2734 385.663 90.3013 385.77 90.287C386.283 90.2367 386.801 90.3097 387.281 90.5002C387.76 90.6907 388.187 90.993 388.526 91.382C388.564 91.4231 388.609 91.4563 388.66 91.4795C388.711 91.5028 388.765 91.5156 388.821 91.5174Z" fill="#263238"/>
<path d="M404.545 107.253C403.315 113.59 402.552 122.362 407.006 126.582C407.006 126.582 405.283 133.004 393.472 133.004C380.541 133.004 387.259 127.369 387.259 127.369C392.635 125.696 392.586 119.581 391.356 114.66L404.545 107.253Z" fill="#FF8B7B"/>
<path d="M409.404 130.814C410.561 129.19 410.511 124.035 409.281 123.125C407.3 121.661 398.799 121.316 387.369 123.949C388.599 128.944 385.954 131.552 385.954 131.552L409.404 130.814Z" fill="#19234F"/>
<path d="M447.865 422.906C447.514 423.03 447.141 423.083 446.77 423.062C446.398 423.041 446.034 422.946 445.699 422.783C445.572 422.665 445.485 422.511 445.45 422.341C445.415 422.171 445.433 421.995 445.503 421.836C445.541 421.703 445.609 421.58 445.7 421.476C445.792 421.372 445.905 421.289 446.032 421.233C447.2 420.667 449.883 421.762 450.006 421.812C450.042 421.826 450.074 421.852 450.096 421.885C450.117 421.918 450.129 421.957 450.129 421.996C450.128 422.036 450.118 422.074 450.099 422.109C450.079 422.143 450.051 422.172 450.018 422.193C449.324 422.498 448.603 422.737 447.865 422.906ZM446.45 421.516C446.369 421.535 446.29 421.564 446.216 421.602C446.139 421.63 446.07 421.676 446.015 421.736C445.959 421.796 445.919 421.868 445.896 421.947C445.786 422.316 445.896 422.439 445.97 422.476C446.438 422.87 448.16 422.476 449.378 422.021C448.452 421.637 447.451 421.465 446.45 421.516Z" fill="#19234F"/>
<path d="M449.968 422.206H449.87C448.886 421.923 446.794 420.434 446.77 419.462C446.769 419.307 446.821 419.157 446.917 419.036C447.013 418.916 447.148 418.831 447.299 418.798C447.444 418.743 447.601 418.721 447.756 418.734C447.911 418.747 448.062 418.794 448.197 418.871C449.353 419.462 450.091 421.849 450.116 421.959C450.133 421.989 450.142 422.023 450.142 422.058C450.142 422.092 450.133 422.126 450.116 422.156C450.097 422.176 450.074 422.19 450.048 422.199C450.022 422.207 449.995 422.21 449.968 422.206ZM447.508 419.142H447.409C447.163 419.228 447.163 419.351 447.163 419.413C447.163 419.991 448.566 421.16 449.624 421.627C449.366 420.938 448.8 419.573 448.049 419.167C447.882 419.091 447.693 419.082 447.52 419.142H447.508Z" fill="#19234F"/>
<path d="M383.961 424.359C382.854 424.359 381.783 424.199 381.427 423.706C381.333 423.575 381.283 423.418 381.283 423.257C381.283 423.096 381.333 422.939 381.427 422.808C381.497 422.688 381.591 422.584 381.703 422.501C381.815 422.418 381.943 422.36 382.079 422.328C383.518 421.935 386.545 423.657 386.668 423.731C386.706 423.749 386.736 423.78 386.754 423.818C386.772 423.856 386.776 423.899 386.766 423.94C386.762 423.982 386.744 424.022 386.715 424.053C386.686 424.084 386.648 424.105 386.606 424.112C385.734 424.272 384.848 424.355 383.961 424.359ZM382.595 422.673C382.465 422.652 382.332 422.652 382.202 422.673C382.118 422.69 382.039 422.724 381.97 422.773C381.9 422.821 381.841 422.884 381.796 422.956C381.648 423.214 381.71 423.337 381.796 423.411C382.202 423.977 384.379 423.989 385.991 423.756C384.939 423.181 383.786 422.813 382.595 422.673Z" fill="#19234F"/>
<path d="M386.595 424.112H386.508C385.463 423.645 383.396 421.775 383.556 420.79C383.556 420.557 383.752 420.274 384.318 420.224C384.521 420.201 384.726 420.219 384.92 420.278C385.115 420.338 385.296 420.437 385.45 420.569C386.239 421.512 386.712 422.678 386.804 423.903C386.803 423.938 386.795 423.973 386.781 424.005C386.766 424.037 386.744 424.065 386.718 424.088C386.68 424.107 386.637 424.115 386.595 424.112ZM384.478 420.606H384.355C383.986 420.606 383.962 420.778 383.962 420.827C383.863 421.418 385.266 422.894 386.336 423.534C386.242 422.547 385.842 421.613 385.192 420.864C384.99 420.692 384.732 420.6 384.466 420.606H384.478Z" fill="#19234F"/>
<path d="M396.092 423.916H387.443L386.582 403.874H395.231L396.092 423.916Z" fill="#FF8B7B"/>
<path d="M459.614 419.904L451.162 421.738L442.66 403.073L451.125 401.24L459.614 419.904Z" fill="#FF8B7B"/>
<path d="M450.337 420.889L459.848 418.834C460.014 418.799 460.187 418.821 460.339 418.897C460.491 418.973 460.613 419.098 460.685 419.253L463.982 426.413C464.07 426.586 464.115 426.778 464.114 426.972C464.114 427.167 464.067 427.358 463.978 427.531C463.89 427.704 463.761 427.853 463.603 427.967C463.446 428.081 463.263 428.155 463.071 428.185C459.749 428.837 458.089 428.997 453.918 429.895C451.346 430.461 445.539 431.876 441.983 432.639C438.428 433.401 437.21 429.993 438.6 429.366C444.813 426.524 447.397 424.026 449.083 421.701C449.387 421.286 449.834 420.997 450.337 420.889Z" fill="#263238"/>
<path d="M387.505 422.907H396.954C397.125 422.908 397.291 422.967 397.425 423.074C397.559 423.181 397.653 423.33 397.692 423.497L399.402 431.187C399.452 431.373 399.458 431.568 399.419 431.756C399.38 431.945 399.298 432.122 399.178 432.272C399.058 432.423 398.905 432.544 398.73 432.624C398.555 432.705 398.364 432.744 398.172 432.737C394.764 432.676 389.843 432.479 385.561 432.479C380.541 432.479 376.223 432.749 370.342 432.749C366.786 432.749 365.802 429.157 367.291 428.825C374.057 427.348 379.594 427.188 385.438 423.583C386.052 423.172 386.767 422.938 387.505 422.907Z" fill="#263238"/>
<path d="M422.482 128.563C430.59 130.42 437.246 151.127 437.246 151.127L421.043 163.516C416.837 159.019 413.87 153.509 412.431 147.522C409.564 136.67 414.19 126.643 422.482 128.563Z" fill="#19234F"/>
<path opacity="0.4" d="M422.482 128.563C430.59 130.42 437.246 151.127 437.246 151.127L421.043 163.516C416.837 159.019 413.87 153.509 412.431 147.522C409.564 136.67 414.19 126.643 422.482 128.563Z" fill="#243271"/>
<path d="M379.827 153.255C377.809 155.433 375.792 157.377 373.676 159.407C372.63 160.391 371.572 161.375 370.489 162.323L368.853 163.762L368.447 164.119L367.745 164.685C367.024 165.262 366.224 165.734 365.371 166.088C364.421 166.491 363.4 166.7 362.369 166.703C361.487 166.707 360.612 166.552 359.785 166.248C358.868 165.898 358.031 165.367 357.324 164.685C356.423 163.804 355.762 162.707 355.405 161.499C355.218 160.903 355.099 160.288 355.048 159.665C354.984 158.937 354.984 158.204 355.048 157.475C355.11 156.885 355.184 156.368 355.282 155.888C355.619 154.211 356.096 152.564 356.709 150.967C357.263 149.448 357.899 147.962 358.616 146.513C359.404 144.951 360.154 143.806 360.905 142.502C363.953 137.509 367.432 132.791 371.301 128.403C375.131 124.04 379.353 120.037 383.912 116.444L388.439 121.107C385.265 125.364 382.14 129.928 379.249 134.419C376.371 138.884 373.743 143.505 371.375 148.26C370.846 149.417 370.144 150.721 369.812 151.656C369.372 152.742 368.99 153.851 368.668 154.978C368.358 155.992 368.124 157.029 367.967 158.078C367.958 158.242 367.958 158.406 367.967 158.57C367.967 158.669 367.967 158.718 367.967 158.46C367.947 158.183 367.893 157.911 367.807 157.648C367.541 156.775 367.053 155.987 366.392 155.359C365.804 154.819 365.113 154.4 364.362 154.129C363.701 153.879 363.001 153.749 362.295 153.747C361.616 153.739 360.942 153.869 360.314 154.129C360.102 154.216 359.896 154.318 359.699 154.436L360.167 154.006L361.655 152.652L364.596 149.897C366.54 148.063 368.496 146.107 370.341 144.286L379.827 153.255Z" fill="#FF8B7B"/>
<path opacity="0.2" d="M415.532 143.77C419.937 148.125 421.376 156.073 421.684 162.963L420.97 163.516C416.764 159.02 413.797 153.509 412.358 147.522C412.198 146.882 412.05 146.292 411.939 145.59L415.532 143.77Z" fill="#243271"/>
<path d="M371.228 137.175C369.456 146.525 368.349 165.731 373.479 203.748H419.814C420.133 196.649 415.667 161.978 422.52 128.501C417.4 127.518 412.222 126.864 407.018 126.545C400.462 126.169 393.889 126.169 387.333 126.545C385.167 126.742 383.027 127.061 381.181 127.394C378.727 127.824 376.461 128.99 374.684 130.737C372.906 132.483 371.701 134.728 371.228 137.175Z" fill="#19234F"/>
<path opacity="0.4" d="M371.228 137.175C369.456 146.525 368.349 165.731 373.479 203.748H419.814C420.133 196.649 415.667 161.978 422.52 128.501C417.4 127.518 412.222 126.864 407.018 126.545C400.462 126.169 393.889 126.169 387.333 126.545C385.167 126.742 383.027 127.061 381.181 127.394C378.727 127.824 376.461 128.99 374.684 130.737C372.906 132.483 371.701 134.728 371.228 137.175Z" fill="#243271"/>
<path opacity="0.2" d="M378.314 151.041L369.948 149.035C369.689 154.104 369.665 160.379 370.034 168.142C373.885 163.762 378.806 156.922 378.314 151.041Z" fill="#243271"/>
<path opacity="0.2" d="M386.582 403.874L387.025 414.208H395.686L395.244 403.874H386.582Z" fill="#243271"/>
<path opacity="0.2" d="M451.125 401.24L442.66 403.073L447.04 412.695L455.505 410.861L451.125 401.24Z" fill="#243271"/>
<path d="M408.654 98.0011C406.44 106.294 405.554 111.264 400.436 114.709C392.746 119.95 383.15 113.946 382.904 105.186C382.633 97.2752 386.312 85.0334 395.207 83.3602C397.162 82.9933 399.178 83.1303 401.065 83.7581C402.952 84.3859 404.648 85.484 405.994 86.9488C407.339 88.4136 408.289 90.1969 408.755 92.1305C409.22 94.0641 409.186 96.0845 408.654 98.0011Z" fill="#FF8B7B"/>
<path d="M389.24 98.3087C388.821 97.2014 386.914 88.626 388.711 86.3991C390.507 84.1722 410.992 85.784 414.019 88.7614C419.051 93.6827 415.556 98.1119 410.057 103.808C405.923 108.09 405.763 112.913 403.671 113.651C399.981 114.881 394.346 113.725 393.214 109.825C392.082 105.924 389.24 98.3087 389.24 98.3087Z" fill="#263238"/>
<path d="M411.533 79.0049C404.299 75.9291 390.728 79.3371 383.395 77.5654C383.302 80.292 384.199 82.9603 385.92 85.0771C387.641 87.194 390.07 88.6163 392.758 89.0813C398.841 90.2405 405.021 90.8132 411.213 90.7915C419.259 90.4224 417.685 81.6255 411.533 79.0049Z" fill="#263238"/>
<path d="M412.665 89.0198C415.308 89.2798 417.969 88.7714 420.33 87.5557C421.683 90.8283 414.24 91.7265 412.665 89.0198Z" fill="#263238"/>
<path d="M393.176 98.6532C393.01 100.787 392.145 102.806 390.715 104.399C388.821 106.478 386.852 105.174 386.52 102.652C386.225 100.363 386.84 96.5001 389.153 95.3928C391.466 94.2855 393.336 96.0818 393.176 98.6532Z" fill="#FF8B7B"/>
<path d="M389.903 203.785C389.903 203.785 399.746 269.915 405.122 294.694C411.016 321.823 442.684 411.575 442.684 411.575L458.174 408.216C458.174 408.216 436.028 335.061 431.107 297.13C427.293 267.996 419.8 203.76 419.8 203.76L389.903 203.785Z" fill="#19234F"/>
<path d="M438.97 406.42C438.908 406.42 441.861 412.031 441.861 412.031L459.282 408.253L457.818 403.012L438.97 406.42Z" fill="#263238"/>
<path opacity="0.3" d="M396.117 227.346C407.473 229.573 406.267 271.921 404.901 293.71C401.629 278.306 396.83 248.68 393.558 227.653C394.351 227.262 395.254 227.153 396.117 227.346Z" fill="#243271"/>
<path d="M373.479 203.785C373.479 203.785 372.249 268.488 373.233 294.829C374.217 322.278 383.802 412.154 383.802 412.154H398.467C398.467 412.154 398.996 323.877 399.698 296.921C400.411 267.541 403.955 203.736 403.955 203.736L373.479 203.785Z" fill="#19234F"/>
<path d="M380.984 406.371C380.91 406.371 381.808 412.448 381.808 412.448H399.636L400.128 407.023L380.984 406.371Z" fill="#263238"/>
<path d="M389.363 140.054C393.509 151.237 369.136 164.414 369.136 164.414L358.58 150.881C358.58 150.881 365.679 136.83 374.291 130.506C384.934 122.706 386.201 131.54 389.363 140.054Z" fill="#19234F"/>
<path opacity="0.4" d="M389.363 140.054C393.509 151.237 369.136 164.414 369.136 164.414L358.58 150.881C358.58 150.881 365.679 136.83 374.291 130.506C384.934 122.706 386.201 131.54 389.363 140.054Z" fill="#243271"/>
<path d="M470.384 56.5951C494.907 56.5951 514.787 43.9259 514.787 28.2976C514.787 12.6693 494.907 0 470.384 0C445.861 0 425.981 12.6693 425.981 28.2976C425.981 43.9259 445.861 56.5951 470.384 56.5951Z" fill="#19234F"/>
<path d="M454.365 42.5449C451.44 42.5354 448.612 41.4954 446.377 39.6076C444.143 37.7197 442.645 35.1049 442.148 32.2224C441.658 29.1001 442.363 25.9081 444.12 23.2817C445.878 20.6552 448.561 18.7871 451.634 18.049C454.155 17.4679 456.796 17.6919 459.184 18.6894C461.572 19.6869 463.587 21.4078 464.946 23.6101L493.453 17.7291C494.548 17.4892 495.694 17.6714 496.661 18.2393C497.628 18.8072 498.345 19.719 498.669 20.7926C498.818 21.3571 498.851 21.946 498.765 22.5235C498.678 23.1009 498.475 23.6547 498.168 24.1511C497.861 24.6474 497.455 25.0758 496.976 25.4101C496.498 25.7444 495.956 25.9776 495.384 26.0954L494.646 26.243C494.536 26.2627 494.433 26.3073 494.343 26.3734C494.253 26.4396 494.18 26.5254 494.129 26.6244C494.084 26.7249 494.06 26.834 494.06 26.9443C494.06 27.0546 494.084 27.1637 494.129 27.2642L494.634 28.5683C494.803 28.991 494.819 29.4595 494.68 29.8929C494.54 30.3263 494.254 30.6977 493.871 30.9429C493.568 31.1297 493.313 31.3831 493.123 31.6837C492.933 31.9843 492.814 32.3242 492.776 32.6776C492.74 33.0832 492.576 33.467 492.309 33.7741C492.041 34.0812 491.684 34.296 491.287 34.3878L490.709 34.5108C490.308 34.5849 489.894 34.5294 489.527 34.3524C489.16 34.1755 488.858 33.8862 488.667 33.5265C488.411 33.0974 488.028 32.7587 487.571 32.5575C487.114 32.3564 486.606 32.3029 486.117 32.4045C485.628 32.506 485.183 32.7576 484.844 33.1242C484.505 33.4907 484.288 33.954 484.225 34.4493C484.191 34.8523 484.029 35.2339 483.764 35.5391C483.499 35.8443 483.143 36.0573 482.749 36.1471L482.17 36.2702C481.77 36.3423 481.356 36.286 480.99 36.1092C480.623 35.9324 480.321 35.6443 480.128 35.2859C479.944 34.9808 479.695 34.7193 479.4 34.5196C479.105 34.3199 478.77 34.1868 478.418 34.1294C477.945 34.0725 477.509 33.8448 477.192 33.4891C476.874 33.1335 476.698 32.6743 476.695 32.1978V30.7952C476.69 30.6855 476.662 30.5781 476.612 30.4805C476.561 30.3829 476.49 30.2972 476.404 30.2295C476.318 30.1617 476.217 30.1134 476.111 30.0879C476.004 30.0624 475.893 30.0602 475.785 30.0816L466.693 31.9517C466.322 34.4706 465.184 36.8141 463.434 38.6633C461.684 40.5125 459.406 41.7776 456.912 42.2865C456.074 42.4579 455.22 42.5444 454.365 42.5449ZM451.904 19.1686C449.114 19.8204 446.674 21.5054 445.076 23.8841C443.478 26.2629 442.84 29.1588 443.292 31.9886C443.776 34.6214 445.186 36.994 447.267 38.6774C449.349 40.3607 451.964 41.2436 454.639 41.1663C457.315 41.089 459.875 40.0566 461.855 38.2559C463.836 36.4552 465.107 34.0051 465.438 31.3489V30.9059L475.465 28.8759C475.753 28.8063 476.052 28.8017 476.342 28.8623C476.632 28.9229 476.904 29.0472 477.14 29.2263C477.375 29.4054 477.568 29.6347 477.704 29.8975C477.84 30.1604 477.916 30.4502 477.926 30.746V32.1486C477.929 32.3156 477.989 32.4765 478.096 32.6042C478.204 32.732 478.352 32.8187 478.516 32.8499C479.054 32.9269 479.567 33.1254 480.017 33.4302C480.467 33.735 480.841 34.1382 481.112 34.6092C481.178 34.742 481.282 34.8512 481.413 34.9217C481.543 34.9923 481.691 35.0207 481.838 35.0029L482.404 34.8799C482.548 34.843 482.675 34.7608 482.768 34.6456C482.862 34.5303 482.915 34.3882 482.921 34.2401C482.998 33.4742 483.318 32.7528 483.832 32.1802C484.346 31.6075 485.03 31.2132 485.783 31.0544C486.536 30.8955 487.32 30.9803 488.022 31.2964C488.724 31.6125 489.307 32.1436 489.688 32.813C489.751 32.9447 489.854 33.0535 489.981 33.1241C490.109 33.1947 490.256 33.2235 490.401 33.2067L490.992 33.0836C491.133 33.0445 491.258 32.9613 491.349 32.8463C491.439 32.7312 491.491 32.5903 491.496 32.4438C491.557 31.9037 491.741 31.3845 492.033 30.9261C492.325 30.4677 492.718 30.082 493.182 29.7986C493.317 29.7009 493.416 29.5606 493.463 29.4001C493.51 29.2397 493.502 29.0681 493.44 28.9128L492.936 27.6087C492.831 27.3398 492.787 27.0514 492.806 26.7636C492.825 26.4759 492.906 26.1956 493.044 25.9426C493.182 25.6895 493.374 25.4696 493.606 25.2984C493.838 25.1271 494.105 25.0086 494.388 24.9511L495.138 24.7912C495.544 24.7046 495.929 24.537 496.269 24.2983C496.609 24.0597 496.897 23.7549 497.116 23.4023C497.336 23.0497 497.482 22.6564 497.545 22.2461C497.609 21.8357 497.59 21.4167 497.488 21.0141C497.248 20.2398 496.724 19.585 496.021 19.1811C495.318 18.7772 494.488 18.654 493.699 18.8364L464.392 24.9265L464.171 24.5451C462.993 22.449 461.165 20.793 458.964 19.8275C456.762 18.862 454.305 18.6393 451.966 19.1932L451.904 19.1686ZM454.365 37.968C452.837 37.985 451.336 37.5576 450.047 36.7377C448.521 35.7361 447.39 34.2363 446.846 32.4941C446.303 30.7519 446.38 28.875 447.065 27.1835C447.751 25.492 449.002 24.0906 450.605 23.2182C452.208 22.3457 454.064 22.0562 455.856 22.3991C457.649 22.742 459.267 23.6959 460.435 25.0984C461.603 26.5008 462.248 28.2649 462.261 30.0899C462.274 31.915 461.653 33.6879 460.505 35.1066C459.357 36.5252 457.752 37.5017 455.964 37.8696C455.441 37.9644 454.909 38.0056 454.377 37.9926L454.365 37.968ZM454.365 23.4378C453.907 23.4404 453.449 23.4858 452.999 23.5732C452.142 23.7557 451.329 24.1054 450.607 24.602C449.885 25.0987 449.268 25.7328 448.791 26.4679C448.314 27.2031 447.987 28.025 447.827 28.8868C447.668 29.7485 447.68 30.6332 447.863 31.4903C448.045 32.3475 448.395 33.1602 448.892 33.8823C449.388 34.6043 450.022 35.2214 450.757 35.6984C451.493 36.1753 452.315 36.5028 453.176 36.6622C454.038 36.8215 454.923 36.8095 455.78 36.627C457.067 36.3591 458.245 35.7163 459.167 34.7796C460.089 33.8429 460.713 32.6542 460.96 31.3634C461.208 30.0726 461.067 28.7374 460.557 27.5262C460.047 26.315 459.189 25.282 458.093 24.5574C457.004 23.833 455.722 23.4516 454.414 23.4624L454.365 23.4378Z" fill="white"/>
<path opacity="0.6" d="M434.249 73.1924C442.308 73.1924 448.841 69.0281 448.841 63.8911C448.841 58.7542 442.308 54.5898 434.249 54.5898C426.19 54.5898 419.657 58.7542 419.657 63.8911C419.657 69.0281 426.19 73.1924 434.249 73.1924Z" fill="#19234F"/>
<path opacity="0.3" d="M411.033 77.0065C414.342 77.0065 417.024 75.2989 417.024 73.1924C417.024 71.086 414.342 69.3784 411.033 69.3784C407.724 69.3784 405.041 71.086 405.041 73.1924C405.041 75.2989 407.724 77.0065 411.033 77.0065Z" fill="#19234F"/>
<defs>
<filter id="filter0_d_232_2934" x="0" y="173.301" width="598" height="362.699" filterUnits="userSpaceOnUse" color-interpolation-filters="sRGB">
<feFlood flood-opacity="0" result="BackgroundImageFix"/>
<feColorMatrix in="SourceAlpha" type="matrix" values="0 0 0 0 0 0 0 0 0 0 0 0 0 0 0 0 0 0 127 0" result="hardAlpha"/>
<feOffset dx="4" dy="2"/>
<feGaussianBlur stdDeviation="7"/>
<feComposite in2="hardAlpha" operator="out"/>
<feColorMatrix type="matrix" values="0 0 0 0 0 0 0 0 0 0 0 0 0 0 0 0 0 0 0.2 0"/>
<feBlend mode="normal" in2="BackgroundImageFix" result="effect1_dropShadow_232_2934"/>
<feBlend mode="normal" in="SourceGraphic" in2="effect1_dropShadow_232_2934" result="shape"/>
</filter>
</defs>
</svg>
