<svg width="162" height="14" viewBox="0 0 162 14" fill="none" xmlns="http://www.w3.org/2000/svg">
<path d="M4.31348 10.5H0.293945V9.46094H1.62695V1.36035H0.293945V0.321289H4.31348V1.36035H2.98047V9.46094H4.31348V10.5ZM17.6572 10.5H16.3721V6.15234C16.3721 5.82422 16.3561 5.50749 16.3242 5.20215C16.2969 4.89681 16.2354 4.65299 16.1396 4.4707C16.0348 4.27474 15.8844 4.12663 15.6885 4.02637C15.4925 3.92611 15.21 3.87598 14.8408 3.87598C14.4808 3.87598 14.1208 3.96712 13.7607 4.14941C13.4007 4.32715 13.0407 4.55501 12.6807 4.83301C12.6943 4.93783 12.7057 5.06087 12.7148 5.20215C12.724 5.33887 12.7285 5.47559 12.7285 5.6123V10.5H11.4434V6.15234C11.4434 5.8151 11.4274 5.49609 11.3955 5.19531C11.3682 4.88997 11.3066 4.64616 11.2109 4.46387C11.1061 4.2679 10.9557 4.12207 10.7598 4.02637C10.5638 3.92611 10.2812 3.87598 9.91211 3.87598C9.5612 3.87598 9.20801 3.96257 8.85254 4.13574C8.50163 4.30892 8.15072 4.52995 7.7998 4.79883V10.5H6.51465V2.86426H7.7998V3.71191C8.20085 3.37923 8.59961 3.11947 8.99609 2.93262C9.39714 2.74577 9.82324 2.65234 10.2744 2.65234C10.7939 2.65234 11.2337 2.76172 11.5938 2.98047C11.9583 3.19922 12.2295 3.50228 12.4072 3.88965C12.9268 3.45215 13.4007 3.1377 13.8291 2.94629C14.2575 2.75033 14.7155 2.65234 15.2031 2.65234C16.0417 2.65234 16.6592 2.90755 17.0557 3.41797C17.4567 3.92383 17.6572 4.63249 17.6572 5.54395V10.5ZM26.8516 6.58984C26.8516 7.20964 26.7627 7.77702 26.585 8.29199C26.4072 8.80241 26.1566 9.23535 25.833 9.59082C25.5322 9.92806 25.1768 10.1901 24.7666 10.377C24.361 10.5592 23.9303 10.6504 23.4746 10.6504C23.0781 10.6504 22.7181 10.6071 22.3945 10.5205C22.0755 10.4339 21.7497 10.2995 21.417 10.1172V13.3164H20.1318V2.86426H21.417V3.66406C21.7588 3.37695 22.1416 3.1377 22.5654 2.94629C22.9938 2.75033 23.4495 2.65234 23.9326 2.65234C24.8532 2.65234 25.5687 3.00098 26.0791 3.69824C26.5941 4.39095 26.8516 5.35482 26.8516 6.58984ZM25.5254 6.62402C25.5254 5.70345 25.3682 5.0153 25.0537 4.55957C24.7393 4.10384 24.2562 3.87598 23.6045 3.87598C23.2354 3.87598 22.8639 3.95573 22.4902 4.11523C22.1165 4.27474 21.7588 4.48438 21.417 4.74414V9.07129C21.7816 9.23535 22.0938 9.34701 22.3535 9.40625C22.6178 9.46549 22.9163 9.49512 23.249 9.49512C23.9645 9.49512 24.5228 9.25358 24.9238 8.77051C25.3249 8.28743 25.5254 7.57194 25.5254 6.62402ZM35.3623 6.68555C35.3623 7.92969 35.0433 8.91178 34.4053 9.63184C33.7673 10.3519 32.9128 10.7119 31.8418 10.7119C30.7617 10.7119 29.9027 10.3519 29.2646 9.63184C28.6312 8.91178 28.3145 7.92969 28.3145 6.68555C28.3145 5.44141 28.6312 4.45931 29.2646 3.73926C29.9027 3.01465 30.7617 2.65234 31.8418 2.65234C32.9128 2.65234 33.7673 3.01465 34.4053 3.73926C35.0433 4.45931 35.3623 5.44141 35.3623 6.68555ZM34.0361 6.68555C34.0361 5.69661 33.8424 4.96289 33.4551 4.48438C33.0677 4.0013 32.5299 3.75977 31.8418 3.75977C31.1445 3.75977 30.6022 4.0013 30.2148 4.48438C29.832 4.96289 29.6406 5.69661 29.6406 6.68555C29.6406 7.64258 29.8343 8.36947 30.2217 8.86621C30.609 9.3584 31.1491 9.60449 31.8418 9.60449C32.5254 9.60449 33.0609 9.36068 33.4482 8.87305C33.8402 8.38086 34.0361 7.65169 34.0361 6.68555ZM42.123 4.26562H42.0547C41.8633 4.22005 41.6764 4.18815 41.4941 4.16992C41.3164 4.14714 41.1045 4.13574 40.8584 4.13574C40.4619 4.13574 40.0791 4.22461 39.71 4.40234C39.3408 4.57552 38.9854 4.80111 38.6436 5.0791V10.5H37.3584V2.86426H38.6436V3.99219C39.154 3.58203 39.6029 3.29264 39.9902 3.12402C40.3822 2.95085 40.7809 2.86426 41.1865 2.86426C41.4098 2.86426 41.5716 2.87109 41.6719 2.88477C41.7721 2.89388 41.9225 2.91439 42.123 2.94629V4.26562ZM47.2979 10.4316C47.0563 10.4954 46.792 10.5479 46.5049 10.5889C46.2223 10.6299 45.9694 10.6504 45.7461 10.6504C44.9668 10.6504 44.3743 10.4408 43.9688 10.0215C43.5632 9.60221 43.3604 8.93001 43.3604 8.00488V3.94434H42.4922V2.86426H43.3604V0.669922H44.6455V2.86426H47.2979V3.94434H44.6455V7.42383C44.6455 7.82487 44.6546 8.13932 44.6729 8.36719C44.6911 8.59049 44.7549 8.80013 44.8643 8.99609C44.9645 9.17839 45.1012 9.31283 45.2744 9.39941C45.4521 9.48145 45.721 9.52246 46.0811 9.52246C46.2907 9.52246 46.5094 9.49284 46.7373 9.43359C46.9652 9.36979 47.1292 9.31738 47.2295 9.27637H47.2979V10.4316ZM60.5391 3.39746C60.5391 3.84863 60.4593 4.2679 60.2998 4.65527C60.1449 5.03809 59.9261 5.37077 59.6436 5.65332C59.2926 6.00423 58.8779 6.26855 58.3994 6.44629C57.9209 6.61947 57.3171 6.70605 56.5879 6.70605H55.2344V10.5H53.8809V0.321289H56.6426C57.2533 0.321289 57.7705 0.373698 58.1943 0.478516C58.6182 0.578776 58.9941 0.738281 59.3223 0.957031C59.7096 1.2168 60.0081 1.54036 60.2178 1.92773C60.432 2.3151 60.5391 2.80501 60.5391 3.39746ZM59.1309 3.43164C59.1309 3.08073 59.0693 2.77539 58.9463 2.51562C58.8232 2.25586 58.6364 2.04395 58.3857 1.87988C58.167 1.73861 57.9163 1.63835 57.6338 1.5791C57.3558 1.5153 57.0026 1.4834 56.5742 1.4834H55.2344V5.55078H56.376C56.9229 5.55078 57.3672 5.50293 57.709 5.40723C58.0508 5.30697 58.3288 5.14974 58.543 4.93555C58.7572 4.7168 58.9076 4.48665 58.9941 4.24512C59.0853 4.00358 59.1309 3.73242 59.1309 3.43164ZM67.8193 10.5H66.541V9.68652C66.4271 9.764 66.2721 9.87337 66.0762 10.0146C65.8848 10.1514 65.6979 10.2607 65.5156 10.3428C65.3014 10.4476 65.0553 10.5342 64.7773 10.6025C64.4993 10.6755 64.1735 10.7119 63.7998 10.7119C63.1117 10.7119 62.5283 10.484 62.0498 10.0283C61.5713 9.57259 61.332 8.99154 61.332 8.28516C61.332 7.70638 61.4551 7.23926 61.7012 6.88379C61.9518 6.52376 62.3073 6.24121 62.7676 6.03613C63.2324 5.83105 63.7907 5.69206 64.4424 5.61914C65.0941 5.54622 65.7936 5.49154 66.541 5.45508V5.25684C66.541 4.96517 66.4886 4.72363 66.3838 4.53223C66.2835 4.34082 66.1377 4.19043 65.9463 4.08105C65.764 3.97624 65.5452 3.9056 65.29 3.86914C65.0348 3.83268 64.7682 3.81445 64.4902 3.81445C64.153 3.81445 63.777 3.86003 63.3623 3.95117C62.9476 4.03776 62.5192 4.16536 62.0771 4.33398H62.0088V3.02832C62.2594 2.95996 62.6217 2.88477 63.0957 2.80273C63.5697 2.7207 64.0368 2.67969 64.4971 2.67969C65.0348 2.67969 65.502 2.72526 65.8984 2.81641C66.2995 2.90299 66.6458 3.05339 66.9375 3.26758C67.2246 3.47721 67.4434 3.74837 67.5938 4.08105C67.7441 4.41374 67.8193 4.82617 67.8193 5.31836V10.5ZM66.541 8.62012V6.49414C66.1491 6.51693 65.6865 6.55111 65.1533 6.59668C64.6247 6.64225 64.2054 6.70833 63.8955 6.79492C63.5264 6.89974 63.2279 7.0638 63 7.28711C62.7721 7.50586 62.6582 7.80892 62.6582 8.19629C62.6582 8.63379 62.7904 8.96419 63.0547 9.1875C63.319 9.40625 63.7223 9.51562 64.2646 9.51562C64.7158 9.51562 65.1283 9.42904 65.502 9.25586C65.8757 9.07812 66.222 8.86621 66.541 8.62012ZM75.0586 4.26562H74.9902C74.7988 4.22005 74.612 4.18815 74.4297 4.16992C74.252 4.14714 74.04 4.13574 73.7939 4.13574C73.3975 4.13574 73.0146 4.22461 72.6455 4.40234C72.2764 4.57552 71.9209 4.80111 71.5791 5.0791V10.5H70.2939V2.86426H71.5791V3.99219C72.0895 3.58203 72.5384 3.29264 72.9258 3.12402C73.3177 2.95085 73.7165 2.86426 74.1221 2.86426C74.3454 2.86426 74.5072 2.87109 74.6074 2.88477C74.7077 2.89388 74.8581 2.91439 75.0586 2.94629V4.26562ZM81.9561 10.5H80.6777V9.68652C80.5638 9.764 80.4089 9.87337 80.2129 10.0146C80.0215 10.1514 79.8346 10.2607 79.6523 10.3428C79.4382 10.4476 79.1921 10.5342 78.9141 10.6025C78.6361 10.6755 78.3102 10.7119 77.9365 10.7119C77.2484 10.7119 76.665 10.484 76.1865 10.0283C75.708 9.57259 75.4688 8.99154 75.4688 8.28516C75.4688 7.70638 75.5918 7.23926 75.8379 6.88379C76.0885 6.52376 76.444 6.24121 76.9043 6.03613C77.3691 5.83105 77.9274 5.69206 78.5791 5.61914C79.2308 5.54622 79.9303 5.49154 80.6777 5.45508V5.25684C80.6777 4.96517 80.6253 4.72363 80.5205 4.53223C80.4202 4.34082 80.2744 4.19043 80.083 4.08105C79.9007 3.97624 79.682 3.9056 79.4268 3.86914C79.1715 3.83268 78.9049 3.81445 78.627 3.81445C78.2897 3.81445 77.9137 3.86003 77.499 3.95117C77.0843 4.03776 76.6559 4.16536 76.2139 4.33398H76.1455V3.02832C76.3962 2.95996 76.7585 2.88477 77.2324 2.80273C77.7064 2.7207 78.1735 2.67969 78.6338 2.67969C79.1715 2.67969 79.6387 2.72526 80.0352 2.81641C80.4362 2.90299 80.7826 3.05339 81.0742 3.26758C81.3613 3.47721 81.5801 3.74837 81.7305 4.08105C81.8809 4.41374 81.9561 4.82617 81.9561 5.31836V10.5ZM80.6777 8.62012V6.49414C80.2858 6.51693 79.8232 6.55111 79.29 6.59668C78.7614 6.64225 78.3421 6.70833 78.0322 6.79492C77.6631 6.89974 77.3646 7.0638 77.1367 7.28711C76.9089 7.50586 76.7949 7.80892 76.7949 8.19629C76.7949 8.63379 76.9271 8.96419 77.1914 9.1875C77.4557 9.40625 77.859 9.51562 78.4014 9.51562C78.8525 9.51562 79.265 9.42904 79.6387 9.25586C80.0124 9.07812 80.3587 8.86621 80.6777 8.62012ZM95.5732 10.5H94.2881V6.15234C94.2881 5.82422 94.2721 5.50749 94.2402 5.20215C94.2129 4.89681 94.1514 4.65299 94.0557 4.4707C93.9508 4.27474 93.8005 4.12663 93.6045 4.02637C93.4085 3.92611 93.126 3.87598 92.7568 3.87598C92.3968 3.87598 92.0368 3.96712 91.6768 4.14941C91.3167 4.32715 90.9567 4.55501 90.5967 4.83301C90.6104 4.93783 90.6217 5.06087 90.6309 5.20215C90.64 5.33887 90.6445 5.47559 90.6445 5.6123V10.5H89.3594V6.15234C89.3594 5.8151 89.3434 5.49609 89.3115 5.19531C89.2842 4.88997 89.2227 4.64616 89.127 4.46387C89.0221 4.2679 88.8717 4.12207 88.6758 4.02637C88.4798 3.92611 88.1973 3.87598 87.8281 3.87598C87.4772 3.87598 87.124 3.96257 86.7686 4.13574C86.4176 4.30892 86.0667 4.52995 85.7158 4.79883V10.5H84.4307V2.86426H85.7158V3.71191C86.1169 3.37923 86.5156 3.11947 86.9121 2.93262C87.3132 2.74577 87.7393 2.65234 88.1904 2.65234C88.71 2.65234 89.1497 2.76172 89.5098 2.98047C89.8743 3.19922 90.1455 3.50228 90.3232 3.88965C90.8428 3.45215 91.3167 3.1377 91.7451 2.94629C92.1735 2.75033 92.6315 2.65234 93.1191 2.65234C93.9577 2.65234 94.5752 2.90755 94.9717 3.41797C95.3727 3.92383 95.5732 4.63249 95.5732 5.54395V10.5ZM104.439 6.81543H98.8135C98.8135 7.28483 98.8841 7.69499 99.0254 8.0459C99.1667 8.39225 99.3604 8.67708 99.6064 8.90039C99.8434 9.11914 100.124 9.2832 100.447 9.39258C100.775 9.50195 101.135 9.55664 101.527 9.55664C102.047 9.55664 102.569 9.4541 103.093 9.24902C103.621 9.03939 103.997 8.83431 104.221 8.63379H104.289V10.0352C103.856 10.2174 103.414 10.3701 102.963 10.4932C102.512 10.6162 102.038 10.6777 101.541 10.6777C100.274 10.6777 99.2852 10.3359 98.5742 9.65234C97.8633 8.96419 97.5078 7.98893 97.5078 6.72656C97.5078 5.47786 97.8473 4.48665 98.5264 3.75293C99.21 3.01921 100.108 2.65234 101.22 2.65234C102.25 2.65234 103.043 2.95312 103.599 3.55469C104.159 4.15625 104.439 5.01074 104.439 6.11816V6.81543ZM103.188 5.83105C103.184 5.15658 103.013 4.63477 102.676 4.26562C102.343 3.89648 101.835 3.71191 101.151 3.71191C100.463 3.71191 99.9141 3.91471 99.5039 4.32031C99.0983 4.72591 98.8682 5.22949 98.8135 5.83105H103.188ZM110.353 10.4316C110.111 10.4954 109.847 10.5479 109.56 10.5889C109.277 10.6299 109.024 10.6504 108.801 10.6504C108.021 10.6504 107.429 10.4408 107.023 10.0215C106.618 9.60221 106.415 8.93001 106.415 8.00488V3.94434H105.547V2.86426H106.415V0.669922H107.7V2.86426H110.353V3.94434H107.7V7.42383C107.7 7.82487 107.709 8.13932 107.728 8.36719C107.746 8.59049 107.81 8.80013 107.919 8.99609C108.019 9.17839 108.156 9.31283 108.329 9.39941C108.507 9.48145 108.776 9.52246 109.136 9.52246C109.345 9.52246 109.564 9.49284 109.792 9.43359C110.02 9.36979 110.184 9.31738 110.284 9.27637H110.353V10.4316ZM118.303 6.81543H112.677C112.677 7.28483 112.747 7.69499 112.889 8.0459C113.03 8.39225 113.224 8.67708 113.47 8.90039C113.707 9.11914 113.987 9.2832 114.311 9.39258C114.639 9.50195 114.999 9.55664 115.391 9.55664C115.91 9.55664 116.432 9.4541 116.956 9.24902C117.485 9.03939 117.861 8.83431 118.084 8.63379H118.152V10.0352C117.719 10.2174 117.277 10.3701 116.826 10.4932C116.375 10.6162 115.901 10.6777 115.404 10.6777C114.137 10.6777 113.148 10.3359 112.438 9.65234C111.727 8.96419 111.371 7.98893 111.371 6.72656C111.371 5.47786 111.711 4.48665 112.39 3.75293C113.073 3.01921 113.971 2.65234 115.083 2.65234C116.113 2.65234 116.906 2.95312 117.462 3.55469C118.022 4.15625 118.303 5.01074 118.303 6.11816V6.81543ZM117.052 5.83105C117.047 5.15658 116.876 4.63477 116.539 4.26562C116.206 3.89648 115.698 3.71191 115.015 3.71191C114.326 3.71191 113.777 3.91471 113.367 4.32031C112.962 4.72591 112.731 5.22949 112.677 5.83105H117.052ZM125.016 4.26562H124.947C124.756 4.22005 124.569 4.18815 124.387 4.16992C124.209 4.14714 123.997 4.13574 123.751 4.13574C123.354 4.13574 122.972 4.22461 122.603 4.40234C122.233 4.57552 121.878 4.80111 121.536 5.0791V10.5H120.251V2.86426H121.536V3.99219C122.047 3.58203 122.495 3.29264 122.883 3.12402C123.275 2.95085 123.674 2.86426 124.079 2.86426C124.302 2.86426 124.464 2.87109 124.564 2.88477C124.665 2.89388 124.815 2.91439 125.016 2.94629V4.26562ZM137.689 10.5H131.25V0.321289H132.604V9.29688H137.689V10.5ZM140.321 1.58594H138.872V0.25293H140.321V1.58594ZM140.239 10.5H138.954V2.86426H140.239V10.5ZM148.237 8.29883C148.237 8.99609 147.948 9.56803 147.369 10.0146C146.795 10.4613 146.009 10.6846 145.011 10.6846C144.446 10.6846 143.926 10.6185 143.452 10.4863C142.983 10.3496 142.589 10.2015 142.27 10.042V8.59961H142.338C142.743 8.90495 143.195 9.14876 143.691 9.33105C144.188 9.50879 144.664 9.59766 145.12 9.59766C145.685 9.59766 146.127 9.50651 146.446 9.32422C146.765 9.14193 146.925 8.85482 146.925 8.46289C146.925 8.16211 146.838 7.93424 146.665 7.7793C146.492 7.62435 146.159 7.49219 145.667 7.38281C145.485 7.3418 145.245 7.29395 144.949 7.23926C144.658 7.18457 144.391 7.12533 144.149 7.06152C143.479 6.88379 143.003 6.62402 142.721 6.28223C142.443 5.93587 142.304 5.51204 142.304 5.01074C142.304 4.69629 142.368 4.40007 142.495 4.12207C142.627 3.84408 142.826 3.5957 143.09 3.37695C143.345 3.16276 143.669 2.99414 144.061 2.87109C144.457 2.74349 144.899 2.67969 145.387 2.67969C145.842 2.67969 146.303 2.73665 146.768 2.85059C147.237 2.95996 147.627 3.0944 147.937 3.25391V4.62793H147.868C147.54 4.38639 147.141 4.18359 146.672 4.01953C146.202 3.85091 145.742 3.7666 145.291 3.7666C144.822 3.7666 144.425 3.85775 144.102 4.04004C143.778 4.21777 143.616 4.48438 143.616 4.83984C143.616 5.1543 143.714 5.39128 143.91 5.55078C144.102 5.71029 144.411 5.84017 144.84 5.94043C145.077 5.99512 145.341 6.0498 145.633 6.10449C145.929 6.15918 146.175 6.20931 146.371 6.25488C146.968 6.3916 147.428 6.6263 147.752 6.95898C148.076 7.29622 148.237 7.74284 148.237 8.29883ZM154.048 10.4316C153.806 10.4954 153.542 10.5479 153.255 10.5889C152.972 10.6299 152.719 10.6504 152.496 10.6504C151.717 10.6504 151.124 10.4408 150.719 10.0215C150.313 9.60221 150.11 8.93001 150.11 8.00488V3.94434H149.242V2.86426H150.11V0.669922H151.396V2.86426H154.048V3.94434H151.396V7.42383C151.396 7.82487 151.405 8.13932 151.423 8.36719C151.441 8.59049 151.505 8.80013 151.614 8.99609C151.715 9.17839 151.851 9.31283 152.024 9.39941C152.202 9.48145 152.471 9.52246 152.831 9.52246C153.041 9.52246 153.259 9.49284 153.487 9.43359C153.715 9.36979 153.879 9.31738 153.979 9.27637H154.048V10.4316ZM161.062 8.29883C161.062 8.99609 160.772 9.56803 160.193 10.0146C159.619 10.4613 158.833 10.6846 157.835 10.6846C157.27 10.6846 156.75 10.6185 156.276 10.4863C155.807 10.3496 155.413 10.2015 155.094 10.042V8.59961H155.162C155.568 8.90495 156.019 9.14876 156.516 9.33105C157.012 9.50879 157.489 9.59766 157.944 9.59766C158.509 9.59766 158.951 9.50651 159.271 9.32422C159.59 9.14193 159.749 8.85482 159.749 8.46289C159.749 8.16211 159.662 7.93424 159.489 7.7793C159.316 7.62435 158.983 7.49219 158.491 7.38281C158.309 7.3418 158.07 7.29395 157.773 7.23926C157.482 7.18457 157.215 7.12533 156.974 7.06152C156.304 6.88379 155.827 6.62402 155.545 6.28223C155.267 5.93587 155.128 5.51204 155.128 5.01074C155.128 4.69629 155.192 4.40007 155.319 4.12207C155.451 3.84408 155.65 3.5957 155.914 3.37695C156.169 3.16276 156.493 2.99414 156.885 2.87109C157.281 2.74349 157.723 2.67969 158.211 2.67969C158.667 2.67969 159.127 2.73665 159.592 2.85059C160.061 2.95996 160.451 3.0944 160.761 3.25391V4.62793H160.692C160.364 4.38639 159.965 4.18359 159.496 4.01953C159.027 3.85091 158.566 3.7666 158.115 3.7666C157.646 3.7666 157.249 3.85775 156.926 4.04004C156.602 4.21777 156.44 4.48438 156.44 4.83984C156.44 5.1543 156.538 5.39128 156.734 5.55078C156.926 5.71029 157.236 5.84017 157.664 5.94043C157.901 5.99512 158.165 6.0498 158.457 6.10449C158.753 6.15918 158.999 6.20931 159.195 6.25488C159.792 6.3916 160.253 6.6263 160.576 6.95898C160.9 7.29622 161.062 7.74284 161.062 8.29883Z" fill="black"/>
</svg>
